# xmcd
#
# Track frame offsets:
#  150
#  130637
#  191162
#  230387
#
# Disc length: 3636 seconds
#
# Revision: 0
# Processed by: cddbd v1.5.1PL0 Copyright (c) Steve Scherf et al.
# Submitted via: AltoMP3_Maker 3.0
#
DISCID=2d0e3204
DTITLE=Franz Liszt - Los Grandes de la Música Clásica
DYEAR=1900
DGENRE=
TTITLE0=Sonata para Piano en si menor
TTITLE1=Preludio y Fuga para Organo sobre el nombre de B-A-C-H
TTITLE2=Estudio de ejecucion trascendental No 11 en Re Bemol Mayor
TTITLE3=Rapsodia Hungara para Piano No 2 en Do Sostenido Menor
EXTD=
EXTT0=
EXTT1=
EXTT2=
EXTT3=
PLAYORDER=
